<?xml version="1.0" encoding="UTF-8"?>
<svg xmlns="http://www.w3.org/2000/svg" viewBox="0 0 900 900">
  <defs>
    <style>
      .cls-1 {
        fill: #1d1d1b;
      }

      .cls-2 {
        fill: #fff;
      }
    </style>
  </defs>
  <g id="Shapes">
    <circle class="cls-2" cx="450" cy="450" r="450"/>
    <circle class="cls-1" cx="450" cy="450" r="400"/>
  </g>
  <g id="Text">
    <path class="cls-2" d="M621,621.59c-53.2,4.41-89.8,9.4-109.8,15-35.2,10-66.81,28.6-94.8,55.8-11.61-26-35.01-39-70.2-39-14.4,0-26.2,3.4-35.4,10.2-10.41,7.6-15.6,18.21-15.6,31.8,0,12.8,5.9,22.2,17.7,28.2,11.79,6,17.7,9.8,17.7,11.4,0,2-1.8,3-5.4,3-15.21,0-28-7.2-38.4-21.6-9.6-13.2-14.4-27.6-14.4-43.2,0-29.19,9.99-51.8,30-67.8,8.4-6.8,27.2-16.59,56.4-29.4,21.6-9.6,33.2-20.79,34.8-33.6,2,22.41,13.5,42.21,34.5,59.4,21,17.2,42.9,26.2,65.7,27v-146.4c0-21.2-15.81-31.8-47.4-31.8-23.61,0-48,6.4-73.2,19.2-27.6,14.01-43.6,32.01-48,54v-170.4c0-23.6-2.8-40.8-8.4-51.6-8.01-14.79-22.8-21.99-44.4-21.6v-12.6h60c32.79,0,57.39-3.39,73.8-10.2,8-3.2,21.2-11.4,39.6-24.6,15.99-11.6,32.19-19.59,48.6-24,6-1.59,11.19-2.4,15.6-2.4,7.59,0,14.79,4.8,21.6,14.4,8.79,12.81,17.4,22.2,25.8,28.2,14.79,10.8,36,17.01,63.6,18.6v12.6c-26.4,1.6-49,10.5-67.8,26.7-18.81,16.2-30.81,37.3-36,63.3-12-66-45.4-99.6-100.2-100.8v127.8c0,23.61,13.59,35.4,40.8,35.4,20,0,42.99-6.2,69-18.6,27.99-13.2,46.2-27.8,54.6-43.8v160.2c0,21.21,1.8,37.6,5.4,49.2,5.6,18,17,27.81,34.2,29.4v12.6ZM460.8,421.79c-2.4-.39-6.81-1.4-13.2-3v-132c4.4,2.8,8.79,5.01,13.2,6.6v128.4ZM460.8,607.19c-4.41-2-8.2-4.4-11.4-7.2l-1.8-.6v-136.2h7.2c.39,0,1.4.21,3,.6h3v143.4Z"/>
  </g>
</svg>